<svg xmlns="http://www.w3.org/2000/svg" viewBox="0 0 320 140">
  <rect width="320" height="140" fill="#121A23"/>
  <g fill="#1F2D3C" stroke="#2C5566" stroke-width="1">
    <rect x="22" y="12" width="26" height="26" rx="4"/><rect x="50" y="12" width="26" height="26" rx="4"/>
    <rect x="78" y="12" width="26" height="26" rx="4"/><rect x="190" y="12" width="26" height="26" rx="4"/>
    <rect x="218" y="12" width="26" height="26" rx="4"/><rect x="246" y="12" width="26" height="26" rx="4"/>
    <rect x="274" y="12" width="26" height="26" rx="4"/>
    <rect x="22" y="40" width="26" height="26" rx="4"/><rect x="218" y="40" width="26" height="26" rx="4"/>
    <rect x="246" y="40" width="26" height="26" rx="4"/><rect x="274" y="40" width="26" height="26" rx="4"/>
    <rect x="22" y="68" width="26" height="26" rx="4"/><rect x="50" y="68" width="26" height="26" rx="4"/>
    <rect x="246" y="68" width="26" height="26" rx="4"/><rect x="274" y="68" width="26" height="26" rx="4"/>
    <rect x="22" y="96" width="26" height="26" rx="4"/><rect x="50" y="96" width="26" height="26" rx="4"/>
    <rect x="78" y="96" width="26" height="26" rx="4"/><rect x="274" y="96" width="26" height="26" rx="4"/>
  </g>
  <g font-family="Arial" font-weight="900" font-size="17" text-anchor="middle">
    <text x="119" y="31" fill="#5CC2FF">1</text><text x="147" y="31" fill="#7BD65B">2</text>
    <text x="175" y="31" fill="#5CC2FF">1</text>
    <text x="63" y="59" fill="#5CC2FF">1</text><text x="203" y="59" fill="#FF6B9A">3</text>
    <text x="91" y="87" fill="#7BD65B">2</text><text x="231" y="87" fill="#5CC2FF">1</text>
    <text x="119" y="115" fill="#5CC2FF">1</text><text x="259" y="115" fill="#7BD65B">2</text>
  </g>
  <g fill="#F5C542" opacity="0.35">
    <rect x="190" y="40" width="26" height="26" rx="4"/>
  </g>
  <g transform="translate(232 53)">
    <path d="M-6 9 L-6 -9" stroke="#E8EEF4" stroke-width="2" stroke-linecap="round"/>
    <path d="M-5 -9 L7 -4 L-5 1 Z" fill="#FF4FA3"/>
  </g>
  <g transform="translate(287 81)">
    <path d="M-6 9 L-6 -9" stroke="#E8EEF4" stroke-width="2" stroke-linecap="round"/>
    <path d="M-5 -9 L7 -4 L-5 1 Z" fill="#F5C542"/>
  </g>
  <g transform="translate(36 108)">
    <path d="M4 -6 Q8 -12 11 -10" stroke="#F5C542" stroke-width="1.8" fill="none"/>
    <circle cx="11" cy="-10" r="2" fill="#FFD25A"/>
    <circle r="8" fill="#2A3140" stroke="#FF4FA3" stroke-width="1.6"/>
    <ellipse cx="-3" cy="-0.5" rx="1.4" ry="1.7" fill="#fff"/><ellipse cx="3" cy="-0.5" rx="1.4" ry="1.7" fill="#fff"/>
    <path d="M-5.5 -4 L-1.5 -2 M5.5 -4 L1.5 -2 M-2.5 4 Q0 2.5 2.5 4" stroke="#fff" stroke-width="1.2" stroke-linecap="round" fill="none"/>
  </g>
  <rect x="135" y="72" width="30" height="15" rx="7.5" fill="#fff" stroke="#8090A0"/>
  <text x="150" y="84" font-family="Arial" font-weight="900" font-size="12" text-anchor="middle" fill="#FF4FA3">?</text>
  <text x="168" y="118" font-family="Arial" font-weight="900" font-size="15" fill="#B98AF0" stroke="#0D131A" stroke-width="3" paint-order="stroke" text-anchor="middle">LIES!</text>
  <text x="104" y="66" font-family="Arial" font-weight="900" font-size="13" fill="#F05A4F" stroke="#0D131A" stroke-width="3" paint-order="stroke">PANIC!</text>
</svg>
